 <svg xmlns="http://www.w3.org/2000/svg">
      <symbol viewBox="0 0 24 24" id="blocks">
        <path
          d="M21 11h-3.5V3a1 1 0 0 0-1-1h-9a1 1 0 0 0-1 1v8H3a1 1 0 0 0-1 1v9a1 1 0 0 0 1 1h18a1 1 0 0 0 1-1v-9a1 1 0 0 0-1-1Zm-10 9H4v-7h7Zm-2.5-9V4h7v7ZM20 20h-7v-7h7Z"
        />
      </symbol>
      <symbol viewBox="0 0 24 24" fill="none" id="flex"><path fill-rule="evenodd" clip-rule="evenodd" d="M5.497 3.017A2.5 2.5 0 0 0 3 5.517V18.5A2.5 2.5 0 0 0 5.5 21h13a2.5 2.5 0 0 0 2.5-2.5V5.503a2.5 2.5 0 0 0-2.503-2.5l-13 .014zM5 11V5.517a.5.5 0 0 1 .5-.5l5.5-.006V11H5zm0 2v5.5a.5.5 0 0 0 .5.5H11v-6H5zm8 6V5.009l5.5-.006a.5.5 0 0 1 .5.5V18.5a.5.5 0 0 1-.5.5H13z" fill="#000"/></symbol>
      <symbol viewBox="-7.5 0 32 32" id="float">
        <path
          d="M14.92 22.12A8.683 8.683 0 0 0 17.44 16c0-2.4-.96-4.56-2.52-6.12l-.08-.08a8.683 8.683 0 0 0-6.12-2.52c-2.4 0-4.56.96-6.12 2.52l-.08.08C.96 11.44 0 13.6 0 16s.96 4.56 2.52 6.12l.08.08a8.683 8.683 0 0 0 6.12 2.52c2.4 0 4.56-.96 6.12-2.52l.08-.08c0 .04 0 0 0 0zm-.68-1.76L12.88 19c.6-.84.96-1.88.96-2.96 0-1.12-.36-2.12-.96-2.96l1.36-1.36c.96 1.2 1.52 2.72 1.52 4.36a6.9 6.9 0 0 1-1.52 4.28zM5.28 16a3.44 3.44 0 1 1 6.88 0c0 1.88-1.56 3.44-3.44 3.44-1.92 0-3.44-1.52-3.44-3.44zm7.8-5.52-1.36 1.36c-.84-.6-1.88-.96-2.96-.96-1.12 0-2.12.36-2.96.96l-1.36-1.36c1.2-.96 2.72-1.52 4.36-1.52a6.9 6.9 0 0 1 4.28 1.52zM3.2 11.64 4.56 13c-.6.88-.96 1.88-.96 3s.36 2.12.96 2.96l-1.36 1.4c-.96-1.2-1.52-2.72-1.52-4.36s.56-3.16 1.52-4.36zm1.16 9.88 1.36-1.36c.84.6 1.88.96 2.96.96 1.12 0 2.12-.36 2.96-.96L13 21.52c-1.2.96-2.72 1.52-4.36 1.52a6.9 6.9 0 0 1-4.28-1.52z"
        />
      </symbol>
      <symbol viewBox="0 0 24 24" fill="none" id="gallery">
        <path
          clip-rule="evenodd"
          d="M15 8.5a.5.5 0 1 0 1 0 .5.5 0 0 0-1 0Z"
          stroke="#000"
          stroke-width="1.5"
          stroke-linecap="round"
          stroke-linejoin="round"
        />
        <path
          d="M18.25 11a.75.75 0 0 0 1.5 0h-1.5ZM5 15l.75.001V15H5Zm.192 2.84a.75.75 0 1 0 1.202-.9l-1.202.9ZM19.75 11a.75.75 0 0 0-1.5 0h1.5ZM9 19v-.75.75Zm-2.605-2.058a.75.75 0 1 0-1.204.896l1.204-.896Zm13.109-5.386a.75.75 0 1 0-1.008-1.112l1.008 1.112ZM14.3 15.26l-.504-.556-.005.005.509.551Zm-.76.262-.062.747.061-.747Zm-.708-.383.592-.46-.592.46Zm-2.009-2.581.592-.46-.001-.002-.591.462Zm-.808-.384-.016-.75.016.75Zm-.792.417-.61-.437.61.437Zm-4.04 4.362a.75.75 0 0 0 1.22.872l-1.22-.872ZM19.75 11V9h-1.5v2h1.5Zm0-2A4.75 4.75 0 0 0 15 4.25v1.5A3.25 3.25 0 0 1 18.25 9h1.5ZM15 4.25H9v1.5h6v-1.5Zm-6 0A4.75 4.75 0 0 0 4.25 9h1.5A3.25 3.25 0 0 1 9 5.75v-1.5ZM4.25 9v6h1.5V9h-1.5Zm0 5.999a4.732 4.732 0 0 0 .942 2.84l1.202-.898A3.232 3.232 0 0 1 5.75 15l-1.5-.002Zm14-3.999v4h1.5v-4h-1.5Zm0 4A3.25 3.25 0 0 1 15 18.25v1.5A4.75 4.75 0 0 0 19.75 15h-1.5ZM15 18.25H9v1.5h6v-1.5Zm-6 0a3.244 3.244 0 0 1-2.605-1.308l-1.204.896a4.744 4.744 0 0 0 3.81 1.912L9 18.25Zm9.496-7.806-4.7 4.261 1.008 1.112 4.7-4.261-1.008-1.112Zm-4.705 4.266a.25.25 0 0 1-.19.065l-.123 1.495a1.75 1.75 0 0 0 1.33-.458l-1.017-1.102Zm-.19.065a.25.25 0 0 1-.177-.095l-1.184.92c.3.387.75.63 1.238.67l.123-1.495Zm-.177-.096-2.01-2.58-1.183.92 2.01 2.582 1.183-.922Zm-2.01-2.582a1.75 1.75 0 0 0-1.415-.671l.031 1.5a.25.25 0 0 1 .202.095l1.182-.924Zm-1.415-.671a1.75 1.75 0 0 0-1.385.729l1.218.874a.25.25 0 0 1 .198-.104l-.03-1.5Zm-1.386.73-3.43 4.798 1.22.872 3.43-4.798-1.22-.872Z"
          fill="#000"
        />
      </symbol>
      <symbol viewBox="0 0 1920 1920" id="home">
        <path
          d="M960.16 0 28 932.16l79 78.777 853.16-853.16 853.16 853.16 78.889-78.777L960.16 0Zm613.693 1027.34v781.078h-334.86v-557.913h-557.8v557.912H346.445V1027.34H234.751V1920h1450.684v-892.66h-111.582Zm-446.33 334.748v446.441H792.775v-446.441h334.748ZM960.127 692.604c61.593 0 111.582 49.989 111.582 111.582 0 61.594-49.989 111.583-111.582 111.583-61.594 0-111.583-49.99-111.583-111.583 0-61.593 49.99-111.582 111.583-111.582Zm223.165 111.582c0-123.075-100.09-223.165-223.165-223.165-123.076 0-223.165 100.09-223.165 223.165 0 123.076 100.09 223.165 223.165 223.165 123.075 0 223.165-100.09 223.165-223.165"
          fill-rule="evenodd"
        />
      </symbol>
      <symbol viewBox="0 0 470 470" id="homeworks">
        <path
          d="M192.465 294.786h-12.5v-25.895c0-4.142-3.357-7.5-7.5-7.5s-7.5 3.358-7.5 7.5v25.895H148.31v-55.895c0-4.142-3.357-7.5-7.5-7.5s-7.5 3.358-7.5 7.5v55.895h-16.654v-25.895c0-4.142-3.357-7.5-7.5-7.5s-7.5 3.358-7.5 7.5v25.895H85v-55.895c0-4.142-3.357-7.5-7.5-7.5s-7.5 3.358-7.5 7.5v63.395a7.5 7.5 0 0 0 7.5 7.5h114.965a7.5 7.5 0 0 0 0-15zM192.465 53.251H77.5c-4.143 0-7.5 3.358-7.5 7.5s3.357 7.5 7.5 7.5h114.965a7.5 7.5 0 0 0 0-15zM192.465 88.879H77.5c-4.143 0-7.5 3.358-7.5 7.5s3.357 7.5 7.5 7.5h114.965a7.5 7.5 0 0 0 0-15zM77.5 139.507h57.482c4.143 0 7.5-3.358 7.5-7.5s-3.357-7.5-7.5-7.5H77.5c-4.143 0-7.5 3.358-7.5 7.5s3.357 7.5 7.5 7.5zM192.465 160.135H77.5c-4.143 0-7.5 3.358-7.5 7.5s3.357 7.5 7.5 7.5h114.965a7.5 7.5 0 0 0 0-15zM192.465 195.763H77.5c-4.143 0-7.5 3.358-7.5 7.5s3.357 7.5 7.5 7.5h114.965a7.5 7.5 0 0 0 0-15zM235 58.675a7.5 7.5 0 0 0-7.5 7.5v252.848c0 4.142 3.357 7.5 7.5 7.5s7.5-3.358 7.5-7.5V66.175c0-4.143-3.357-7.5-7.5-7.5z"
        />
        <path
          d="M462.5 73.251H440v-52.5a7.5 7.5 0 0 0-7.5-7.5H263.732A41.879 41.879 0 0 0 235 24.624a41.883 41.883 0 0 0-28.732-11.373H37.5a7.5 7.5 0 0 0-7.5 7.5v52.5H7.5a7.5 7.5 0 0 0-7.5 7.5v321.535a7.5 7.5 0 0 0 7.5 7.5h197.337l8.396 9.793a7.5 7.5 0 0 0 5.694 2.618l32.152-.003c2.189 0 4.27-.957 5.694-2.62l8.389-9.789h41.087v27.463c0 10.752 8.748 19.5 19.502 19.5h16c10.751 0 19.498-8.748 19.498-19.5v-27.463H462.5a7.5 7.5 0 0 0 7.5-7.5V80.751a7.5 7.5 0 0 0-7.5-7.5zm-116.25 52.998v252.5h-25v-252.5h25zm-25 267.5h25v15h-25v-15zm3.75-282.5 8.751-21 8.749 21H325zm16.752 330.5h-16c-2.44 0-4.502-2.061-4.502-4.5v-13.5h25v13.5c0 2.439-2.06 4.5-4.498 4.5zM455 394.786h-93.75V118.749c0-.25-.013-.499-.038-.747a7.708 7.708 0 0 0-.091-.612c-.007-.038-.01-.077-.018-.115a7.446 7.446 0 0 0-.461-1.483l-19.968-47.927a7.5 7.5 0 0 0-13.846-.001l-19.974 47.932c-.201.47-.356.964-.459 1.478-.008.042-.011.084-.019.126-.036.198-.07.398-.09.601a7.443 7.443 0 0 0-.038.747v276.037H263.73a11.976 11.976 0 0 0-9.675 4.907l-6.429 7.502-25.254.002-6.433-7.503a11.984 11.984 0 0 0-9.675-4.908H15V88.251h15v254.035a7.5 7.5 0 0 0 7.5 7.5h168.768a26.936 26.936 0 0 1 21.232 10.343v10.42a41.921 41.921 0 0 0-21.232-5.763H37.5c-4.143 0-7.5 3.358-7.5 7.5s3.357 7.5 7.5 7.5h168.768a26.96 26.96 0 0 1 22.488 12.063c.165.246.339.473.525.692.049.058.102.112.153.168a7.559 7.559 0 0 0 .636.628c.158.138.323.269.492.394.056.041.11.085.167.125.234.163.477.314.73.45a7.6 7.6 0 0 0 .767.353c.062.025.126.046.189.069a7.328 7.328 0 0 0 1.494.379c.075.011.149.025.225.034.285.033.574.054.868.054.297 0 .583-.021.867-.054.079-.009.156-.024.234-.036a7.675 7.675 0 0 0 .866-.18c.209-.057.414-.123.615-.197.066-.024.132-.046.197-.072.258-.103.51-.217.753-.346.265-.141.506-.292.739-.454.06-.041.116-.087.175-.131a7.523 7.523 0 0 0 .691-.575c.149-.14.291-.286.427-.438.053-.058.107-.114.158-.174.185-.218.358-.444.517-.682 5.029-7.561 13.435-12.071 22.494-12.071h20.018c4.143 0 7.5-3.358 7.5-7.5s-3.357-7.5-7.5-7.5h-20.018a41.918 41.918 0 0 0-21.232 5.762v-10.419a26.934 26.934 0 0 1 21.232-10.343h20.018c4.143 0 7.5-3.358 7.5-7.5s-3.357-7.5-7.5-7.5h-20.018a41.896 41.896 0 0 0-28.733 11.364 41.9 41.9 0 0 0-28.731-11.364H45V28.251h161.268c9.056 0 17.461 4.514 22.486 12.075a7.498 7.498 0 0 0 12.493 0c5.023-7.561 13.43-12.074 22.485-12.074H425v306.535h-41.25c-4.143 0-7.5 3.358-7.5 7.5s3.357 7.5 7.5 7.5h48.75a7.5 7.5 0 0 0 7.5-7.5V88.251h15v306.535z"
        />
        <path
          d="M432.5 364.786h-48.75c-4.143 0-7.5 3.358-7.5 7.5s3.357 7.5 7.5 7.5h48.75c4.143 0 7.5-3.358 7.5-7.5s-3.357-7.5-7.5-7.5z"
        />
      </symbol>
      <symbol viewBox="0 0 24 24" fill="none" id="table">
        <path
          d="M3 9.5h18m-18 5h18M8 4.5v15m-1.8 0h11.6c1.12 0 1.68 0 2.108-.218a2 2 0 0 0 .874-.874C21 17.98 21 17.42 21 16.3V7.7c0-1.12 0-1.68-.218-2.108a2 2 0 0 0-.874-.874C19.48 4.5 18.92 4.5 17.8 4.5H6.2c-1.12 0-1.68 0-2.108.218a2 2 0 0 0-.874.874C3 6.02 3 6.58 3 7.7v8.6c0 1.12 0 1.68.218 2.108a2 2 0 0 0 .874.874c.428.218.988.218 2.108.218Z"
          stroke="#000"
          stroke-width="2"
        />
      </symbol>
    </svg>